<svg   viewBox="0 0 230 64" fill="none" preserveAspectRatio="none" xmlns="http://www.w3.org/2000/svg">
<path fill-rule="evenodd" clip-rule="evenodd" d="M200.367 1C216.162 1 228.966 13.8041 228.966 29.5987C228.966 45.3933 216.162 58.1974 200.367 58.1974H37.2935C24.8247 62.7723 15.0286 62.8414 10.172 62.4478C8.39523 62.3038 7.40656 62.1038 7.3654 62.0955C6.91164 62.0023 6.55966 61.6699 6.46805 61.2477C6.37646 60.8253 6.56268 60.3928 6.94264 60.1446C10.5314 57.8019 12.7787 55.5563 14.1847 53.6922C6.25494 48.6086 0.999969 39.7173 0.999969 29.5987C0.999969 13.8041 13.804 1 29.5987 1H200.367Z" fill="#0094B6"/>
<path d="M37.2935 58.1974L37.1213 57.728L37.2047 57.6974H37.2935V58.1974ZM10.172 62.4478L10.1316 62.9462L10.172 62.4478ZM7.3654 62.0955L7.26593 62.5855L7.26491 62.5852L7.3654 62.0955ZM6.46805 61.2477L5.97942 61.3537L5.9794 61.3536L6.46805 61.2477ZM6.94264 60.1446L6.66919 59.726L6.66933 59.7259L6.94264 60.1446ZM14.1847 53.6922L14.4545 53.2713L14.9088 53.5625L14.5838 53.9933L14.1847 53.6922ZM228.466 29.5987C228.466 14.0802 215.885 1.5 200.367 1.5V0.5C216.438 0.5 229.466 13.5279 229.466 29.5987H228.466ZM200.367 57.6974C215.885 57.6974 228.466 45.1172 228.466 29.5987H229.466C229.466 45.6695 216.438 58.6974 200.367 58.6974V57.6974ZM37.2935 57.6974H200.367V58.6974H37.2935V57.6974ZM10.2124 61.9494C15.0103 62.3383 24.732 62.2738 37.1213 57.728L37.4657 58.6668C24.9174 63.2709 15.0469 63.3446 10.1316 62.9462L10.2124 61.9494ZM7.46487 61.6054C7.48918 61.6104 8.45801 61.8072 10.2124 61.9494L10.1316 62.9462C8.33246 62.8003 7.32393 62.5972 7.26593 62.5855L7.46487 61.6054ZM6.95668 61.1417C7.00253 61.353 7.18799 61.5486 7.4659 61.6057L7.26491 62.5852C6.63528 62.4561 6.11679 61.9869 5.97942 61.3537L6.95668 61.1417ZM7.21609 60.5632C6.99794 60.7057 6.91191 60.9352 6.9567 61.1418L5.9794 61.3536C5.84102 60.7153 6.12743 60.0799 6.66919 59.726L7.21609 60.5632ZM14.5838 53.9933C13.1392 55.9086 10.8476 58.1925 7.21596 60.5633L6.66933 59.7259C10.2152 57.4112 12.4181 55.204 13.7855 53.3911L14.5838 53.9933ZM1.49997 29.5987C1.49997 39.5399 6.66214 48.2757 14.4545 53.2713L13.9148 54.1131C5.84775 48.9414 0.499969 39.8948 0.499969 29.5987H1.49997ZM29.5987 1.5C14.0802 1.5 1.49997 14.0802 1.49997 29.5987H0.499969C0.499969 13.5279 13.5279 0.5 29.5987 0.5V1.5ZM200.367 1.5H29.5987V0.5H200.367V1.5Z" fill="#373B53"/>
</svg>
